<?xml version="1.0"?><svg fill="#000000" xmlns="http://www.w3.org/2000/svg"  viewBox="0 0 30 30" width="30px" height="30px">    <path d="M 15 3.0976562 C 8.373 3.0976562 3 8.426 3 15 C 3 21.574 8.373 26.902344 15 26.902344 C 15.366 26.902344 15.727938 26.885516 16.085938 26.853516 C 10.435938 26.660516 5.9140625 22.066734 5.9140625 16.427734 C 5.9140625 10.665734 10.634031 5.9941406 16.457031 5.9941406 C 22.045031 5.9941406 26.616563 10.296328 26.976562 15.736328 C 26.990563 15.492328 27 15.248 27 15 C 27 8.426 21.627 3.0976563 15 3.0976562 z M 17.064453 8.6914062 C 12.403453 8.6914062 8.6230469 12.429969 8.6230469 17.042969 C 8.6230469 21.654969 12.403453 25.394531 17.064453 25.394531 C 21.725453 25.394531 25.503906 21.655969 25.503906 17.042969 C 25.503906 16.517969 25.455328 16.004812 25.361328 15.507812 C 24.660328 16.423813 23.550781 17.015625 22.300781 17.015625 C 20.177781 17.015625 18.455078 15.308125 18.455078 13.203125 C 18.455078 11.566125 19.496031 10.170859 20.957031 9.6308594 C 19.792031 9.0298594 18.469453 8.6914062 17.064453 8.6914062 z"/></svg>